<?xml version="1.0" encoding="UTF-8" standalone="no"?>
<svg
   xmlns:dc="http://purl.org/dc/elements/1.1/"
   xmlns:cc="http://creativecommons.org/ns#"
   xmlns:rdf="http://www.w3.org/1999/02/22-rdf-syntax-ns#"
   xmlns:svg="http://www.w3.org/2000/svg"
   xmlns="http://www.w3.org/2000/svg"
   xmlns:sodipodi="http://sodipodi.sourceforge.net/DTD/sodipodi-0.dtd"
   xmlns:inkscape="http://www.inkscape.org/namespaces/inkscape"
   width="170.11026mm"
   height="170.11026mm"
   viewBox="0 0 170.11026 170.11026"
   version="1.1"
   id="svg8"
   inkscape:version="1.0.2-2 (e86c870879, 2021-01-15)"
   sodipodi:docname="my chibi 2.svg">
  <defs
     id="defs2">
    <clipPath
       clipPathUnits="userSpaceOnUse"
       id="clipPath1053">
      <circle
         style="display:inline;fill:none;stroke:#000000;stroke-width:0.964999;stroke-dashoffset:1.51937;stroke-opacity:1"
         id="circle1055"
         cx="105"
         cy="148.5"
         r="83.92263" />
    </clipPath>
    <clipPath
       clipPathUnits="userSpaceOnUse"
       id="clipPath1080">
      <circle
         style="display:inline;fill:none;stroke:#000000;stroke-width:0.964999;stroke-dashoffset:1.51937;stroke-opacity:1"
         id="circle1082"
         cx="105"
         cy="148.5"
         r="83.92263" />
    </clipPath>
  </defs>
  <sodipodi:namedview
     id="base"
     pagecolor="#ffffff"
     bordercolor="#666666"
     borderopacity="1.0"
     inkscape:pageopacity="0.0"
     inkscape:pageshadow="2"
     inkscape:zoom="0.9899495"
     inkscape:cx="302.15865"
     inkscape:cy="359.31436"
     inkscape:document-units="mm"
     inkscape:current-layer="layer3"
     inkscape:document-rotation="0"
     showgrid="false"
     inkscape:window-width="1920"
     inkscape:window-height="986"
     inkscape:window-x="-11"
     inkscape:window-y="-11"
     inkscape:window-maximized="1"
     fit-margin-top="0"
     fit-margin-left="0"
     fit-margin-right="0"
     fit-margin-bottom="0" />
  <metadata
     id="metadata5">
    <rdf:RDF>
      <cc:Work
         rdf:about="">
        <dc:format>image/svg+xml</dc:format>
        <dc:type
           rdf:resource="http://purl.org/dc/dcmitype/StillImage" />
        <dc:title></dc:title>
      </cc:Work>
    </rdf:RDF>
  </metadata>
  <g
     inkscape:label="Original Chibi"
     inkscape:groupmode="layer"
     id="layer1"
     style="display:none"
     sodipodi:insensitive="true"
     transform="translate(-19.94487,-63.44487)">
    <path
       style="fill:#000000;stroke-width:0.264583"
       d="m 85.648953,298.90904 c -0.376203,-0.70294 -0.345577,-3.27945 0.04361,-3.66864 0.540303,-0.5403 0.793327,-0.34961 0.35896,0.27054 -0.226531,0.32342 -0.411877,1.07083 -0.411877,1.66092 0,0.59008 0.185346,1.3375 0.411877,1.66092 0.226534,0.32342 0.290253,0.58804 0.141602,0.58804 -0.148653,0 -0.39353,-0.2303 -0.544172,-0.51178 z m 5.428711,-0.21583 c 0.491082,-0.9414 0.488317,-2.47135 -0.0056,-3.12443 -0.58324,-0.77111 -0.466878,-1.13782 0.132681,-0.41813 0.824883,0.99016 0.619791,4.27017 -0.267005,4.27017 -0.13177,0 -0.06878,-0.32743 0.13997,-0.72761 z m -3.585935,-1.52135 v -1.98438 l 1.124479,0.0445 1.124479,0.0445 -0.992188,0.10378 -0.992187,0.10379 v 1.68785 1.68785 l 0.992187,0.10378 0.992188,0.10379 -1.124479,0.0445 -1.124479,0.0445 z m 5.027083,0.79375 v -1.19063 h 1.076735 c 0.965277,0 1.067983,-0.0616 0.992188,-0.59531 -0.06679,-0.47025 -0.30688,-0.62911 -1.142881,-0.7562 l -1.058334,-0.1609 1.256771,-0.0375 1.256771,-0.0375 v 0.92604 c 0,0.88195 -0.0441,0.92605 -0.926042,0.92605 -0.878848,0 -0.926041,0.0464 -0.926041,0.91007 0,0.85679 0.05808,0.91614 0.992187,1.01385 0.909016,0.0951 0.886836,0.10752 -0.264583,0.14827 l -1.256771,0.0445 z m 3.439583,-0.77854 v -1.99959 h 1.202217 1.202216 l -0.07774,1.91823 -0.07774,1.91823 -1.124479,0.0814 -1.12448,0.0814 z m 1.852084,-0.0152 v -1.71979 h -0.79375 -0.79375 v 1.71979 1.71979 h 0.79375 0.79375 z m 1.322917,0.79375 c 0,-1.18433 0.0049,-1.19063 0.926044,-1.19063 0.80527,0 0.92604,-0.0842 0.92604,-0.64548 0,-0.55106 -0.14515,-0.66067 -0.992189,-0.74928 -0.896458,-0.0938 -0.869315,-0.10807 0.281349,-0.14826 l 1.27353,-0.0445 -0.0829,0.8599 c -0.0733,0.76003 -0.19045,0.87526 -1.00895,0.99219 -0.814232,0.11632 -0.935906,0.23418 -1.007759,0.97621 -0.07919,0.81779 -0.04641,0.84708 1.058329,0.94596 l 1.14006,0.10205 -1.25677,0.0462 -1.256774,0.0462 z m 3.175004,0 c 0,-1.18433 0.005,-1.19063 0.92604,-1.19063 0.80527,0 0.92604,-0.0842 0.92604,-0.64548 0,-0.55106 -0.14515,-0.66067 -0.99219,-0.74928 -0.89646,-0.0938 -0.86931,-0.10807 0.28135,-0.14826 l 1.27353,-0.0445 -0.0829,0.8599 c -0.0733,0.76003 -0.19045,0.87526 -1.00895,0.99219 -0.81423,0.11632 -0.93591,0.23418 -1.00776,0.97621 -0.0792,0.81779 -0.0464,0.84708 1.05833,0.94596 l 1.14006,0.10205 -1.25677,0.0462 -1.25677,0.0462 z m 4.49791,-0.79375 v -1.98438 l 1.25677,0.0445 c 1.15142,0.0408 1.1736,0.0532 0.26459,0.14826 l -0.99219,0.10379 v 1.68785 1.68785 l 0.99219,0.10378 c 0.90901,0.0951 0.88683,0.10752 -0.26459,0.14827 l -1.25677,0.0445 z m 3.24385,0 c -0.004,-1.24385 0.0631,-1.78936 0.16205,-1.32292 0.13975,0.65914 0.31393,0.80781 1.02703,0.87666 0.79976,0.0772 0.85874,0.0272 0.85874,-0.7276 0,-0.44579 0.11906,-0.81052 0.26458,-0.81052 0.15288,0 0.26459,0.83785 0.26459,1.98438 0,1.14653 -0.11171,1.98437 -0.26459,1.98437 -0.14552,0 -0.26458,-0.48379 -0.26458,-1.07509 0,-1.05355 -0.0172,-1.07344 -0.85989,-0.99219 -0.78083,0.0753 -0.8747,0.18022 -1.02079,1.14124 -0.11435,0.75214 -0.1627,0.44595 -0.16714,-1.05833 z m 3.41696,0.0661 -0.0462,-2.05052 h 1.19062 1.19063 l -0.0375,2.05052 c -0.0287,1.56904 -0.0753,1.80202 -0.19844,0.99219 -0.14535,-0.95611 -0.2424,-1.06622 -1.00481,-1.14005 -0.81779,-0.0792 -0.84708,-0.0464 -0.94596,1.05833 -0.0633,0.70726 -0.11959,0.36163 -0.14827,-0.91047 z m 1.93815,-1.12448 c 0,-0.40361 -0.20402,-0.54883 -0.85989,-0.61207 -0.77294,-0.0745 -0.8599,-0.0126 -0.8599,0.61207 0,0.62471 0.087,0.68661 0.8599,0.61208 0.65587,-0.0632 0.85989,-0.20846 0.85989,-0.61208 z m 1.22817,1.12448 -0.0375,-2.05052 h 1.19062 c 1.18433,0 1.19063,0.005 1.19063,0.92604 0,0.64676 -0.11969,0.92605 -0.39688,0.92605 -0.48909,0 -0.48976,0.0593 -0.0135,1.19912 0.21086,0.50465 0.28845,0.91754 0.17243,0.91754 -0.11602,0 -0.40258,-0.48784 -0.6368,-1.0841 -0.52014,-1.32416 -1.04903,-1.24975 -1.27052,0.17874 -0.12133,0.7825 -0.17012,0.53344 -0.19844,-1.01287 z m 1.94683,-1.12448 c 0,-0.35506 -0.2059,-0.5583 -0.62583,-0.61771 -0.76276,-0.10792 -1.22239,0.29827 -0.9983,0.88223 0.24968,0.65066 1.62413,0.4268 1.62413,-0.26452 z m 1.19063,1.05834 v -1.98438 h 1.32291 1.32292 v 1.98438 c 0,1.14653 -0.11171,1.98437 -0.26458,1.98437 -0.14552,0 -0.26459,-0.47625 -0.26459,-1.05833 0,-0.99954 -0.0441,-1.05833 -0.79375,-1.05833 -0.74965,0 -0.79375,0.0588 -0.79375,1.05833 0,0.58208 -0.11906,1.05833 -0.26458,1.05833 -0.15287,0 -0.26458,-0.83784 -0.26458,-1.98437 z m 2.11666,-1.05834 c 0,-0.55856 -0.12347,-0.66145 -0.79375,-0.66145 -0.67027,0 -0.79375,0.10289 -0.79375,0.66145 0,0.55857 0.12348,0.66146 0.79375,0.66146 0.67028,0 0.79375,-0.10289 0.79375,-0.66146 z m 1.85209,1.21003 c 0,-1.52293 -0.0783,-1.85313 -0.46302,-1.95368 -0.25466,-0.0666 0.0728,-0.121 0.7276,-0.121 0.65485,0 0.98227,0.0545 0.72761,0.121 -0.38477,0.10055 -0.46303,0.43075 -0.46303,1.95368 0,1.0454 -0.11365,1.83268 -0.26458,1.83268 -0.15092,0 -0.26458,-0.78728 -0.26458,-1.83268 z M 98.641109,276.94818 c -1.213911,-0.30945 -1.460063,-0.62015 -2.424036,-3.05966 -2.369396,-5.99617 -5.402794,-16.14002 -6.580087,-22.00417 l -0.727302,-3.62273 -1.568874,-0.45453 c -2.360731,-0.68395 -3.50203,-1.24111 -3.607268,-1.76101 -0.124659,-0.61584 0.456007,-3.68804 1.115795,-5.90349 0.28915,-0.97091 0.525725,-1.8273 0.525725,-1.90309 0,-0.0758 -0.379111,-0.29485 -0.842471,-0.48678 -0.643196,-0.26642 -0.867423,-0.2741 -0.947973,-0.0324 -0.05803,0.17408 -0.681746,1.19923 -1.386043,2.2781 -1.490205,2.28277 -3.203567,3.52063 -4.437621,3.20607 -0.930294,-0.23712 -1.386695,-0.23726 -3.654108,-0.001 -1.75002,0.1823 -1.913773,0.1543 -2.447396,-0.41848 -0.314539,-0.33763 -0.571889,-0.87005 -0.571889,-1.18317 0,-0.93959 1.465165,-3.54903 3.406834,-6.06753 l 1.827945,-2.371 -0.639992,-0.93629 c -0.351994,-0.51497 -0.874978,-1.69298 -1.16218,-2.61781 -1.449636,-4.66802 -0.303152,-6.6206 8.975564,-15.28632 4.998979,-4.66872 6.311569,-5.5439 9.660792,-6.44143 1.148154,-0.30768 2.334916,-0.69181 2.63725,-0.85361 0.541764,-0.28994 0.542145,-0.29714 0.02643,-0.49862 -0.287798,-0.11244 -0.906058,-0.21281 -1.373915,-0.22303 -0.467857,-0.0104 -2.530771,-0.37699 -4.584256,-0.81484 -12.257132,-2.61348 -22.305941,-6.97149 -26.288288,-11.40081 -1.067888,-1.18775 -1.419038,-1.40463 -2.61456,-1.6148 -2.066227,-0.36325 -5.978012,-2.35929 -7.689961,-3.92392 -1.688971,-1.54362 -3.127368,-4.1349 -3.624493,-6.52955 -0.520377,-2.50664 -0.202766,-6.97952 0.656156,-9.2405 l 0.717213,-1.88792 -0.929769,-3.40371 c -1.757397,-6.43348 -2.603363,-12.68128 -2.651303,-19.58092 l -0.02967,-4.27097 -2.124316,-0.52626 c -1.168374,-0.28945 -3.013843,-0.88137 -4.101042,-1.31538 -1.789237,-0.71428 -1.976726,-0.85819 -1.976726,-1.51727 0,-0.66319 0.207298,-0.81748 2.323629,-1.7295 2.678356,-1.15421 4.657678,-2.44849 6.293615,-4.1154 l 1.150226,-1.172 h -2.011596 c -2.70538,0 -4.956162,-0.72984 -7.276819,-2.35958 -1.894758,-1.33065 -2.299399,-1.83305 -2.033808,-2.52517 0.16949,-0.44169 0.500746,-0.55555 2.348503,-0.80727 0.727604,-0.0991 2.271813,-0.47976 3.431575,-0.84587 l 2.10866,-0.66565 -1.050327,-0.82814 c -1.611503,-1.2706 -3.843076,-3.40759 -4.142335,-3.96676 -0.205976,-0.38487 -0.15453,-0.61052 0.221178,-0.97014 0.468553,-0.44849 0.576114,-0.44772 2.504279,0.0179 2.50046,0.60376 7.895712,1.40866 8.09648,1.20789 0.08177,-0.0818 -0.161031,-0.26642 -0.539557,-0.41034 -0.8914,-0.33891 -2.570906,-1.4238 -4.47839,-2.89287 -2.309117,-1.77839 -2.006034,-2.93268 0.776356,-2.95673 l 1.274165,-0.011 -2.711932,-1.29386 c -3.070037,-1.46471 -4.299527,-2.2609 -4.299527,-2.78429 0,-0.75074 0.782759,-1.11294 2.767875,-1.28074 2.791659,-0.23598 4.115499,-0.8829 9.006084,-4.40098 2.328333,-1.67491 5.066771,-3.48981 6.085417,-4.03311 l 1.852083,-0.98782 -5.772081,-0.007 c -5.964177,-0.007 -6.795628,-0.1384 -6.795628,-1.072392 0,-0.393922 0.69451,-0.865958 2.905721,-1.974922 7.560495,-3.79173 15.663053,-6.34419 22.626572,-7.127801 l 2.645833,-0.297738 -0.09509,-2.429306 c -0.172643,-4.410427 1.397752,-8.592455 2.792037,-7.435303 0.209502,0.173874 0.893651,1.098661 1.52033,2.055088 1.145561,1.748329 3.808923,4.648872 4.048625,4.409167 0.07071,-0.07071 0.404233,-0.917472 0.741156,-1.881687 1.412677,-4.042831 5.020491,-8.971389 6.446023,-8.805778 0.579795,0.06736 0.680136,0.203136 0.645517,0.873503 -0.02254,0.436563 -0.22593,1.503175 -0.451971,2.370249 -0.226045,0.867074 -0.374209,1.613275 -0.329258,1.658226 0.04495,0.04495 1.260369,-0.09691 2.700932,-0.315241 1.440561,-0.218334 6.250604,-0.581718 10.688994,-0.807522 8.26812,-0.420642 12.5872,-0.89223 14.98647,-1.636336 3.29444,-1.021731 3.15476,1.179057 -0.23835,3.755509 l -1.52375,1.157012 3.37583,-0.0071 c 2.61969,-0.0055 4.1759,0.151876 6.94771,0.702638 4.0305,0.800862 11.49021,1.188996 13.97135,0.72694 1.51758,-0.282619 2.28407,0.06541 2.11199,0.958959 -0.14997,0.77874 -5.47257,3.810762 -8.62827,4.915099 l -0.97278,0.340426 1.5875,0.314057 c 4.42992,0.87638 10.39141,2.910502 14.68438,5.010463 2.4665,1.206518 2.89376,1.636144 2.39682,2.410037 -0.22237,0.346305 -2.94573,0.633798 -7.41068,0.782309 -0.84785,0.0282 -0.4407,0.393898 0.91282,0.819893 2.17359,0.684101 4.88723,2.259271 9.14327,5.307321 5.23132,3.74653 6.57728,4.41551 9.3564,4.65044 2.01644,0.17045 2.79929,0.52936 2.79929,1.28339 0,0.52339 -1.22949,1.31959 -4.29953,2.78429 l -2.71193,1.29386 1.27416,0.011 c 2.78239,0.0241 3.08548,1.17835 0.77636,2.95673 -1.90749,1.46907 -3.58699,2.55396 -4.47839,2.89287 -0.37853,0.14392 -0.62133,0.32857 -0.53956,0.41034 0.20077,0.20077 5.59603,-0.60413 8.09648,-1.20789 1.92817,-0.46557 2.03573,-0.46634 2.50428,-0.0179 0.37571,0.35962 0.42715,0.58527 0.22118,0.97014 -0.29926,0.55917 -2.53083,2.69616 -4.14234,3.96676 l -1.05032,0.82814 2.1849,0.69021 c 1.2017,0.37962 2.84414,0.76769 3.64988,0.8624 1.38557,0.16284 2.21899,0.60773 2.21899,1.18452 0,0.35739 -1.20212,1.4482 -2.77812,2.52088 -1.82992,1.24549 -4.23982,1.94553 -6.69754,1.94553 h -2.0116 l 1.15023,1.172 c 1.63593,1.66691 3.61526,2.96118 6.29361,4.1154 2.11633,0.91202 2.32363,1.06631 2.32363,1.7295 0,0.65908 -0.18749,0.80299 -1.97672,1.51726 -1.0872,0.43402 -2.93267,1.02594 -4.10105,1.31538 l -2.12431,0.52627 -0.0297,4.27097 c -0.0483,6.94883 -1.02889,13.97276 -2.83392,20.29867 -0.85484,2.9959 -0.86438,3.0859 -0.43497,4.10104 1.13413,2.68106 1.4737,7.00473 0.78086,9.94297 -1.19129,5.05224 -5.20803,8.74595 -11.04759,10.15914 -1.14343,0.27671 -1.6141,0.58176 -2.61456,1.69451 -3.96823,4.41362 -14.03558,8.77618 -26.27482,11.38584 -2.05349,0.43785 -4.1164,0.80445 -4.58426,0.81468 -0.46786,0.0102 -1.08612,0.11059 -1.37391,0.22303 -0.51572,0.20149 -0.51534,0.20868 0.0264,0.49863 0.30233,0.1618 1.48909,0.54593 2.63725,0.85361 3.34922,0.89752 4.66181,1.77271 9.66079,6.44143 9.39278,8.77224 10.54491,10.79455 8.86355,15.55797 -0.34268,0.97082 -0.86471,2.1045 -1.16006,2.51928 l -0.537,0.75416 1.8314,2.3755 c 1.94473,2.52252 3.41028,5.13193 3.41028,6.07204 0,0.31311 -0.25735,0.84554 -0.57189,1.18315 -0.53362,0.57278 -0.69738,0.60078 -2.4474,0.41849 -2.26741,-0.23619 -2.72381,-0.23606 -3.6541,0.001 -1.23406,0.31455 -2.94742,-0.92331 -4.43762,-3.20607 -0.7043,-1.07888 -1.32802,-2.10403 -1.38605,-2.27811 -0.0806,-0.24164 -0.30477,-0.23397 -0.94797,0.0324 -0.46336,0.19193 -0.84247,0.41098 -0.84247,0.48678 0,0.0758 0.23657,0.93219 0.52572,1.90309 0.65979,2.21545 1.24046,5.28766 1.1158,5.9035 -0.10524,0.5199 -1.24654,1.07706 -3.60727,1.76101 l -1.56887,0.45453 -0.72731,3.62272 c -1.17768,5.8661 -3.91527,15.0495 -6.46758,21.69589 -1.25721,3.27386 -1.53826,3.486 -4.60469,3.47569 -2.71344,-0.009 -3.36017,-0.30394 -3.61794,-1.64926 -0.10423,-0.54394 -0.0613,-6.70397 0.0954,-13.68897 0.25907,-11.55032 0.24607,-12.76587 -0.14352,-13.42761 -0.23561,-0.40017 -0.4961,-0.72759 -0.57887,-0.72759 -0.0828,0 -0.34326,0.32742 -0.57886,0.72761 -0.3896,0.66173 -0.40259,1.87728 -0.14352,13.4276 0.15667,6.985 0.19959,13.14504 0.0954,13.68897 -0.11131,0.58092 -0.4087,1.10629 -0.72076,1.2733 -0.71178,0.38093 -3.85674,0.55082 -4.965328,0.26822 z m 3.616351,-3.1258 0.0814,-1.12448 h -2.13188 c -1.172533,0 -2.131878,0.045 -2.131878,0.1 0,0.39893 0.846021,1.99569 1.117902,2.1099 0.185518,0.0779 0.932616,0.11861 1.660226,0.0904 l 1.32291,-0.0513 z m 8.37353,1.09239 c 0.33923,-0.13018 1.20241,-1.64984 1.20241,-2.11689 0,-0.055 -0.9525,-0.1 -2.11667,-0.1 h -2.11667 v 1.01423 c 0,0.55784 0.0794,1.09362 0.17639,1.19063 0.22246,0.22246 2.28351,0.23113 2.85454,0.012 z m -7.36179,-28.80749 c 0.77664,-1.16972 1.10722,-1.45521 1.68503,-1.45521 0.5778,0 0.90839,0.28549 1.68503,1.45521 0.94565,1.42424 0.99289,1.45515 2.22027,1.45294 3.89213,-0.007 10.3108,-0.90721 13.50624,-1.89418 l 1.67925,-0.51867 -0.1859,-1.10755 c -0.46196,-2.75211 -2.36932,-7.80564 -4.73089,-12.53439 -1.99001,-3.98476 -2.77835,-5.92704 -3.95325,-9.73982 -0.80715,-2.61937 -1.74038,-5.5364 -2.07384,-6.48229 l -0.60628,-1.71979 -1.98438,0.34536 c -2.28303,0.39734 -10.703805,0.28104 -12.108409,-0.16723 -0.836758,-0.26705 -0.876369,-0.2453 -1.273635,0.69917 -0.22551,0.53613 -1.235155,3.59416 -2.243656,6.79562 -1.527138,4.84786 -2.228205,6.60156 -4.194154,10.49156 -2.257732,4.46736 -4.219959,9.66491 -4.648057,12.31181 l -0.179131,1.10755 1.703072,0.52603 c 3.267695,1.00929 8.521304,1.7605 12.95325,1.85219 l 1.78323,0.0369 z m -27.726232,-5.16834 c 1.134443,-0.25676 1.539396,-0.25194 2.055944,0.0245 0.559957,0.29968 0.736137,0.2749 1.360649,-0.19136 0.394571,-0.29459 1.249757,-1.39908 1.900415,-2.45441 0.969233,-1.57205 1.113534,-1.96067 0.798529,-2.15058 -0.211466,-0.1275 -1.104985,-0.64536 -1.985598,-1.1508 l -1.601115,-0.919 -1.333572,1.77166 c -1.876689,2.49318 -2.959195,4.13073 -3.268607,4.94454 -0.230156,0.60536 -0.203618,0.6823 0.197374,0.57229 0.254804,-0.0699 1.098997,-0.27099 1.875981,-0.44685 z m 60.889072,-0.14335 c -0.303,-0.79694 -1.39657,-2.44867 -3.2618,-4.92663 l -1.33357,-1.77166 -1.60112,0.919 c -0.88061,0.50545 -1.77413,1.0233 -1.98559,1.1508 -0.31501,0.18991 -0.17071,0.57853 0.79852,2.15058 1.49295,2.42149 2.35927,3.1284 3.24981,2.6518 0.52028,-0.27845 0.93047,-0.26761 2.32053,0.0613 0.9287,0.21975 1.77489,0.41006 1.88043,0.42291 0.10554,0.0128 0.0753,-0.28331 -0.0672,-0.65813 z M 88.642857,230.79355 c 1.40417,-2.81999 2.553038,-5.27172 2.553038,-5.44827 0,-0.17656 0.654844,-2.31273 1.455209,-4.74705 1.428194,-4.34387 1.455208,-4.4834 1.455208,-7.5163 0,-3.61284 0.02843,-3.58834 -2.717789,-2.34306 -1.167572,0.52944 -2.573195,1.58921 -4.822836,3.63619 -4.279027,3.89354 -7.800965,7.45407 -9.180042,9.28065 -1.073629,1.42201 -1.138708,1.60767 -1.138708,3.24864 0,1.32729 0.157014,2.05446 0.661458,3.06335 0.622731,1.24546 0.893826,1.45832 4.630208,3.63568 2.182813,1.27201 4.099804,2.31381 4.259983,2.3151 0.160176,0.001 1.440098,-2.30493 2.844271,-5.12493 z m 39.727003,2.80983 c 3.73638,-2.17736 4.00747,-2.39022 4.63021,-3.63568 0.50444,-1.00889 0.66145,-1.73606 0.66145,-3.06335 0,-1.64097 -0.0651,-1.82663 -1.13871,-3.24864 -1.37907,-1.82658 -4.90101,-5.38711 -9.18004,-9.28065 -2.24964,-2.04698 -3.65526,-3.10675 -4.82283,-3.63619 -2.74622,-1.24528 -2.71779,-1.26978 -2.71779,2.34306 0,3.0329 0.027,3.17243 1.45521,7.5163 0.80036,2.43432 1.4552,4.57049 1.4552,4.74705 0,0.58428 5.10028,10.57559 5.39731,10.5732 0.16018,-10e-4 2.07717,-1.04309 4.25999,-2.3151 z m -19.6896,-22.29296 c 0.77935,-0.1478 1.83739,-0.48689 2.35121,-0.75354 0.79115,-0.41057 0.93422,-0.62265 0.93422,-1.38492 0,-1.02574 -0.0238,-1.02975 -2.3707,-0.39833 -1.01876,0.2741 -2.66142,0.42427 -4.64076,0.42427 -1.97934,0 -3.622,-0.15017 -4.64077,-0.42427 -2.346853,-0.63142 -2.37069,-0.62741 -2.37069,0.39833 0,0.76637 0.14224,0.97392 0.957321,1.39691 0.526524,0.27325 1.479019,0.59929 2.116669,0.72456 1.64982,0.3241 5.99335,0.33373 7.6635,0.017 z m 4.21147,-6.74734 c 13.34213,-1.49731 28.45379,-7.16784 32.20348,-12.08411 1.46059,-1.915 1.86048,-2.77869 2.1666,-4.67957 0.2423,-1.50455 0.12303,-3.15206 -0.36884,-5.09491 -0.11954,-0.47218 0.29668,-2.38964 1.29224,-5.95312 3.82942,-13.70688 5.45236,-23.43164 5.45236,-32.67091 v -3.37036 l -2.21681,-1.97233 c -3.84246,-3.4187 -7.51529,-5.5927 -10.74778,-6.36174 -4.47299,-1.06416 -4.56307,-1.06771 -7.48695,-0.29453 -2.44887,0.64757 -3.00657,0.7013 -6.0068,0.57872 -2.40819,-0.0984 -4.02657,-0.3273 -5.95312,-0.84206 -1.45521,-0.38882 -2.94349,-0.6497 -3.3073,-0.57974 -1.33118,0.25599 -7.21063,-0.39377 -9.45917,-1.04537 -1.23897,-0.35905 -2.30459,-0.60089 -2.36805,-0.53743 -0.23667,0.23668 -0.59394,5.17069 -0.59644,8.23706 -0.005,6.10173 0.792,10.73409 2.56061,14.88362 0.76016,1.7835 0.87046,2.25618 0.60198,2.57969 -0.51929,0.62569 -1.1383,0.47153 -2.39358,-0.59611 -4.54437,-3.86508 -7.487306,-10.70271 -8.616821,-20.02036 -0.230785,-1.9038 -0.476818,-3.5208 -0.54674,-3.59333 -0.195773,-0.20308 -0.743609,0.63118 -2.905022,4.4238 -2.277583,3.99647 -4.270375,8.32792 -5.116065,11.1201 -0.499912,1.65053 -0.665184,1.91823 -1.184283,1.91823 -1.130554,0 -1.285701,-0.56477 -1.404215,-5.11166 -0.132581,-5.08656 0.207922,-6.95889 1.803503,-9.91701 0.842602,-1.56215 0.951293,-1.90926 0.558821,-1.7847 -3.503766,1.11206 -8.629084,1.22282 -12.208664,0.26384 -2.314559,-0.62008 -2.658785,-0.64878 -4.365625,-0.36405 -1.019122,0.17001 -2.150602,0.51323 -2.514404,0.7627 -0.363802,0.24947 -1.253445,0.534 -1.976983,0.63229 -2.253395,0.30611 -5.537848,2.30082 -9.299964,5.64804 l -2.216804,1.97233 v 3.37036 c 0,9.23927 1.622939,18.96403 5.452357,32.67091 0.995561,3.56348 1.411782,5.48094 1.292238,5.95312 -0.719683,2.84268 -0.600686,5.74329 0.309523,7.54487 1.307864,2.58865 3.192269,4.27207 7.497966,6.69825 4.352436,2.45252 14.063898,5.62282 21.298959,6.95303 5.804133,1.06712 14.649793,1.34925 20.769793,0.66244 z M 92.508827,186.75872 c -0.212789,-0.0656 -1.220328,-0.63175 -2.238973,-1.25805 -4.676302,-2.87512 -11.428863,-3.70713 -16.05111,-1.97773 -0.7971,0.29823 -2.274184,1.04027 -3.282413,1.64897 -2.686278,1.6218 -4.236612,1.38407 -4.846706,-0.74321 -0.472721,-1.64828 0.690983,-2.95971 4.198239,-4.73121 6.045372,-3.05348 14.10375,-2.87769 20.879779,0.45549 1.221388,0.60081 2.679904,1.5292 3.241146,2.0631 0.853863,0.81226 1.02044,1.14428 1.02044,2.03394 0,1.58909 -1.559256,2.92853 -2.920402,2.5087 z m 23.908973,0.0118 c -1.03738,-0.16901 -1.93857,-1.34072 -1.93857,-2.5205 0,-0.89732 0.16615,-1.22127 1.06483,-2.07617 1.28461,-1.22201 4.70113,-2.91235 7.36673,-3.64472 6.04359,-1.66045 11.92314,-1.24935 16.70981,1.16836 3.50725,1.77149 4.67096,3.08293 4.19824,4.73121 -0.6101,2.12727 -2.16043,2.36501 -4.84671,0.74321 -1.00823,-0.6087 -2.48531,-1.35074 -3.28241,-1.64897 -4.61789,-1.72777 -11.35904,-0.8993 -16.05111,1.97265 -2.09104,1.27989 -2.41156,1.40677 -3.22081,1.27493 z M 89.546983,153.23796 c -5.794055,-0.85902 -13.342224,-1.14443 -17.797963,-0.67298 -2.365621,0.25029 -2.852465,0.068 -2.725357,-1.02046 0.11176,-0.95703 1.045986,-1.08721 8.017024,-1.11721 4.456202,-0.0192 6.999377,0.11265 10.847917,0.56231 2.764895,0.32304 5.242578,0.70132 5.50596,0.84061 0.320014,0.16925 0.451676,0.48874 0.396875,0.96307 -0.0705,0.61021 -0.211941,0.71524 -1.008044,0.7485 -0.509323,0.0213 -1.965708,-0.11545 -3.236412,-0.30384 z m 24.942507,-0.11256 c -0.35952,-0.67176 -0.0897,-1.31689 0.61424,-1.46887 3.97889,-0.85903 14.85482,-1.52156 19.84741,-1.20904 4.15443,0.26006 4.74121,0.50642 4.17356,1.7523 -0.2653,0.58227 -0.44081,0.67374 -1.03912,0.54154 -0.39594,-0.0875 -2.56536,-0.23588 -4.82093,-0.32974 -4.29642,-0.1788 -10.3292,0.16164 -14.88107,0.83976 -3.3137,0.49366 -3.56687,0.48547 -3.89409,-0.12595 z m -53.580169,36.69177 c -0.378098,-1.21151 -0.471805,-5.03911 -0.157724,-6.44257 0.279993,-1.25114 0.250447,-1.65777 -0.252391,-3.47343 -0.31323,-1.13101 -1.151406,-4.18639 -1.862616,-6.78972 -0.711211,-2.60333 -1.334659,-4.77487 -1.385441,-4.82565 -0.05078,-0.0508 -0.628234,0.24752 -1.283224,0.66291 -3.444033,2.18414 -5.238795,6.80774 -4.505936,11.60805 0.699855,4.58412 3.40219,7.69093 8.240856,9.47432 1.30434,0.48074 1.417031,0.46076 1.206476,-0.21391 z m 91.687449,-1.02288 c 1.94316,-1.0357 3.77741,-2.96531 4.66808,-4.91079 1.94691,-4.25261 1.22461,-10.10592 -1.63809,-13.27459 -1.15786,-1.28161 -2.73641,-2.32068 -3.02618,-1.99195 -0.11247,0.12759 -0.53161,1.48214 -0.93143,3.01011 -0.39981,1.52797 -1.19895,4.445 -1.77586,6.48229 -0.99772,3.5233 -1.03362,3.7779 -0.73523,5.21429 0.3092,1.4884 0.21625,5.29155 -0.15868,6.49259 -0.18455,0.5912 -0.17962,0.59229 0.92438,0.20277 0.61045,-0.21538 1.81331,-0.7665 2.67301,-1.22472 z"
       id="path847" />
  </g>
  <g
     inkscape:groupmode="layer"
     id="layer4"
     inkscape:label="Background"
     sodipodi:insensitive="true"
     transform="translate(-19.94487,-63.44487)">
    <rect
       style="fill:#fff9f9;fill-opacity:1;stroke:#ffffff;stroke-width:0.964999;stroke-dashoffset:1.51937;stroke-opacity:1"
       id="rect1058"
       width="209.00476"
       height="181.476"
       x="0.26726952"
       y="59.066566"
       rx="2.3623507"
       ry="2.5140524"
       clip-path="url(#clipPath1080)" />
  </g>
  <g
     inkscape:groupmode="layer"
     id="layer2"
     inkscape:label="potrait"
     sodipodi:insensitive="true"
     transform="translate(-19.94487,-63.44487)">
    <path
       style="display:inline;fill:#000000;stroke-width:0.264583"
       d="m 85.649023,299.43829 c -0.3762,-0.70294 -0.34558,-3.27945 0.0436,-3.66864 0.5403,-0.5403 0.79333,-0.34961 0.35896,0.27054 -0.22653,0.32342 -0.41188,1.07083 -0.41188,1.66092 0,0.59008 0.18535,1.3375 0.41188,1.66092 0.22653,0.32342 0.29025,0.58804 0.1416,0.58804 -0.14865,0 -0.39353,-0.2303 -0.54417,-0.51178 z m 5.42871,-0.21583 c 0.49108,-0.9414 0.48832,-2.47135 -0.006,-3.12443 -0.58324,-0.77111 -0.46688,-1.13782 0.13268,-0.41813 0.82488,0.99016 0.61979,4.27017 -0.267,4.27017 -0.13177,0 -0.0688,-0.32743 0.13997,-0.72761 z m -3.58593,-1.52135 v -1.98438 l 1.12447,0.0445 1.12448,0.0445 -0.99218,0.10378 -0.99219,0.10379 v 1.68785 1.68785 l 0.99219,0.10378 0.99218,0.10379 -1.12448,0.0445 -1.12447,0.0445 z m 5.02708,0.79375 v -1.19063 h 1.07673 c 0.96528,0 1.06799,-0.0616 0.99219,-0.59531 -0.0668,-0.47025 -0.30688,-0.62911 -1.14288,-0.7562 l -1.05833,-0.1609 1.25677,-0.0375 1.25677,-0.0375 v 0.92604 c 0,0.88195 -0.0441,0.92605 -0.92604,0.92605 -0.87885,0 -0.92604,0.0464 -0.92604,0.91007 0,0.85679 0.0581,0.91614 0.99218,1.01385 0.90902,0.0951 0.88684,0.10752 -0.26458,0.14827 l -1.25677,0.0445 z m 3.43958,-0.77854 v -1.99959 h 1.20222 1.20222 l -0.0778,1.91823 -0.0777,1.91823 -1.12447,0.0814 -1.12448,0.0814 z m 1.85209,-0.0152 v -1.71979 h -0.79375 -0.79375 v 1.71979 1.71979 h 0.79375 0.79375 z m 1.32291,0.79375 c 0,-1.18433 0.005,-1.19063 0.926047,-1.19063 0.80527,0 0.92604,-0.0842 0.92604,-0.64548 0,-0.55106 -0.14515,-0.66067 -0.992187,-0.74928 -0.89646,-0.0938 -0.86932,-0.10807 0.281347,-0.14826 l 1.27353,-0.0445 -0.0829,0.8599 c -0.0733,0.76003 -0.19045,0.87526 -1.00895,0.99219 -0.814237,0.11632 -0.935907,0.23418 -1.007757,0.97621 -0.0792,0.81779 -0.0464,0.84708 1.058327,0.94596 l 1.14006,0.10205 -1.25677,0.0462 -1.256777,0.0462 z m 3.175007,0 c 0,-1.18433 0.005,-1.19063 0.92604,-1.19063 0.80527,0 0.92604,-0.0842 0.92604,-0.64548 0,-0.55106 -0.14515,-0.66067 -0.99219,-0.74928 -0.89646,-0.0938 -0.86931,-0.10807 0.28135,-0.14826 l 1.27353,-0.0445 -0.0829,0.8599 c -0.0733,0.76003 -0.19045,0.87526 -1.00895,0.99219 -0.81423,0.11632 -0.93591,0.23418 -1.00776,0.97621 -0.0792,0.81779 -0.0464,0.84708 1.05833,0.94596 l 1.14006,0.10205 -1.25677,0.0462 -1.25677,0.0462 z m 4.49791,-0.79375 v -1.98438 l 1.25677,0.0445 c 1.15142,0.0408 1.1736,0.0532 0.26459,0.14826 l -0.99219,0.10379 v 1.68785 1.68785 l 0.99219,0.10378 c 0.90901,0.0951 0.88683,0.10752 -0.26459,0.14827 l -1.25677,0.0445 z m 3.24385,0 c -0.004,-1.24385 0.0631,-1.78936 0.16205,-1.32292 0.13975,0.65914 0.31393,0.80781 1.02703,0.87666 0.79976,0.0772 0.85874,0.0272 0.85874,-0.7276 0,-0.44579 0.11906,-0.81052 0.26458,-0.81052 0.15288,0 0.26459,0.83785 0.26459,1.98438 0,1.14653 -0.11171,1.98437 -0.26459,1.98437 -0.14552,0 -0.26458,-0.48379 -0.26458,-1.07509 0,-1.05355 -0.0172,-1.07344 -0.85989,-0.99219 -0.78083,0.0753 -0.8747,0.18022 -1.02079,1.14124 -0.11435,0.75214 -0.1627,0.44595 -0.16714,-1.05833 z m 3.41696,0.0661 -0.0462,-2.05052 h 1.19062 1.19063 l -0.0375,2.05052 c -0.0287,1.56904 -0.0753,1.80202 -0.19844,0.99219 -0.14535,-0.95611 -0.2424,-1.06622 -1.00481,-1.14005 -0.81779,-0.0792 -0.84708,-0.0464 -0.94596,1.05833 -0.0633,0.70726 -0.11959,0.36163 -0.14827,-0.91047 z m 1.93815,-1.12448 c 0,-0.40361 -0.20402,-0.54883 -0.85989,-0.61207 -0.77294,-0.0745 -0.8599,-0.0126 -0.8599,0.61207 0,0.62471 0.087,0.68661 0.8599,0.61208 0.65587,-0.0632 0.85989,-0.20846 0.85989,-0.61208 z m 1.22817,1.12448 -0.0375,-2.05052 h 1.19062 c 1.18433,0 1.19063,0.005 1.19063,0.92604 0,0.64676 -0.11969,0.92605 -0.39688,0.92605 -0.48909,0 -0.48976,0.0593 -0.0135,1.19912 0.21086,0.50465 0.28845,0.91754 0.17243,0.91754 -0.11602,0 -0.40258,-0.48784 -0.6368,-1.0841 -0.52014,-1.32416 -1.04903,-1.24975 -1.27052,0.17874 -0.12133,0.7825 -0.17012,0.53344 -0.19844,-1.01287 z m 1.94683,-1.12448 c 0,-0.35506 -0.2059,-0.5583 -0.62583,-0.61771 -0.76276,-0.10792 -1.22239,0.29827 -0.9983,0.88223 0.24968,0.65066 1.62413,0.4268 1.62413,-0.26452 z m 1.19063,1.05834 v -1.98438 h 1.32291 1.32292 v 1.98438 c 0,1.14653 -0.11171,1.98437 -0.26458,1.98437 -0.14552,0 -0.26459,-0.47625 -0.26459,-1.05833 0,-0.99954 -0.0441,-1.05833 -0.79375,-1.05833 -0.74965,0 -0.79375,0.0588 -0.79375,1.05833 0,0.58208 -0.11906,1.05833 -0.26458,1.05833 -0.15287,0 -0.26458,-0.83784 -0.26458,-1.98437 z m 2.11666,-1.05834 c 0,-0.55856 -0.12347,-0.66145 -0.79375,-0.66145 -0.67027,0 -0.79375,0.10289 -0.79375,0.66145 0,0.55857 0.12348,0.66146 0.79375,0.66146 0.67028,0 0.79375,-0.10289 0.79375,-0.66146 z m 1.85209,1.21003 c 0,-1.52293 -0.0783,-1.85313 -0.46302,-1.95368 -0.25466,-0.0666 0.0728,-0.121 0.7276,-0.121 0.65485,0 0.98227,0.0545 0.72761,0.121 -0.38477,0.10055 -0.46303,0.43075 -0.46303,1.95368 0,1.0454 -0.11365,1.83268 -0.26458,1.83268 -0.15092,0 -0.26458,-0.78728 -0.26458,-1.83268 z M 98.641183,277.47743 c -1.21392,-0.30945 -1.46007,-0.62015 -2.42404,-3.05966 -2.3694,-5.99617 -5.40279,-16.14002 -6.58009,-22.00417 l -0.7273,-3.62273 -1.56887,-0.45453 c -2.36073,-0.68395 -3.50203,-1.24111 -3.60727,-1.76101 -0.12466,-0.61584 0.45601,-3.68804 1.11579,-5.90349 0.28915,-0.97091 0.52573,-1.8273 0.52573,-1.90309 0,-0.0758 -0.37911,-0.29485 -0.84247,-0.48678 -0.6432,-0.26642 -0.86743,-0.2741 -0.94798,-0.0324 -0.058,0.17408 -0.68174,1.19923 -1.38604,2.2781 -1.4902,2.28277 -3.20357,3.52063 -4.43762,3.20607 -0.93029,-0.23712 -1.38669,-0.23726 -3.65411,-0.001 -1.75002,0.1823 -1.91377,0.1543 -2.44739,-0.41848 -0.31454,-0.33763 -0.57189,-0.87005 -0.57189,-1.18317 0,-0.93959 1.46516,-3.54903 3.40683,-6.06753 l 1.82795,-2.371 -0.64,-0.93629 c -0.35199,-0.51497 -0.87497,-1.69298 -1.16217,-2.61781 -1.44964,-4.66802 -0.30316,-6.6206 8.97556,-15.28632 4.99898,-4.66872 6.31157,-5.5439 9.66079,-6.44143 1.14816,-0.30768 2.33492,-0.69181 2.63725,-0.85361 0.54176,-0.28994 0.54215,-0.29714 0.0264,-0.49862 -0.2878,-0.11244 -0.90606,-0.21281 -1.37391,-0.22303 -0.46786,-0.0104 -2.53077,-0.37699 -4.58426,-0.81484 -12.25713,-2.61348 -22.30594,-6.97149 -26.28829,-11.40081 -1.06789,-1.18775 -1.41904,-1.40463 -2.61456,-1.6148 -2.06622,-0.36325 -5.97801,-2.35929 -7.68996,-3.92392 -1.68897,-1.54362 -3.12737,-4.1349 -3.62449,-6.52955 -0.52038,-2.50664 -0.20277,-6.97952 0.65615,-9.2405 l 0.71722,-1.88792 -0.92977,-3.40371 c -1.7574,-6.43348 -2.60336,-12.68128 -2.65131,-19.58092 l -0.0297,-4.27097 -2.12432,-0.52626 c -1.16838,-0.28945 -3.01384,-0.88137 -4.10104,-1.31538 -1.78924,-0.71428 -1.97673,-0.85819 -1.97673,-1.51727 0,-0.66319 0.2073,-0.81748 2.32363,-1.72951 2.67836,-1.15421 4.65768,-2.4485 6.29361,-4.11542 l 1.15023,-1.17201 h -2.01159 c -2.70538,0 -4.95617,-0.72984 -7.27682,-2.35959 -1.89476,-1.33066 -2.2994,-1.83306 -2.03381,-2.52519 0.16949,-0.44169 0.50074,-0.55555 2.3485,-0.80727 0.7276,-0.0991 2.27181,-0.47976 3.43158,-0.84587 l 2.10866,-0.66566 -1.05033,-0.82814 c -1.6115,-1.27061 -3.84308,-3.40761 -4.14234,-3.96678 -0.20597,-0.38488 -0.15453,-0.61053 0.22118,-0.97015 0.46855,-0.44849 0.57612,-0.44772 2.50428,0.0179 2.50046,0.60376 7.89571,1.40867 8.09648,1.2079 0.0818,-0.0818 -0.16103,-0.26642 -0.53956,-0.41035 -0.8914,-0.33891 -2.5709,-1.4238 -4.47839,-2.89288 -2.30911,-1.7784 -2.00603,-2.9327 0.77636,-2.95675 l 1.27416,-0.011 -2.71193,-1.29387 c -3.07003,-1.46472 -4.29952,-2.26091 -4.29952,-2.7843 0,-0.75075 0.78275,-1.11295 2.76787,-1.28075 2.79166,-0.23598 4.1155,-0.8829 9.00609,-4.401 2.32833,-1.67492 5.06677,-3.48984 6.08541,-4.03314 l 1.85209,-0.98782 -5.77209,-0.007 c -5.96417,-0.007 -6.79562,-0.1384 -6.79562,-1.072399 0,-0.393922 0.69451,-0.865958 2.90572,-1.974922 7.56049,-3.79173 15.66305,-6.34419 22.62657,-7.127801 l 2.64583,-0.297738 -0.0951,-2.429306 c -0.17264,-4.410427 1.39775,-8.592455 2.79204,-7.435303 0.2095,0.173874 0.89365,1.098661 1.52033,2.055088 1.14556,1.748329 3.80892,4.648872 4.04862,4.409167 0.0707,-0.07071 0.40424,-0.917472 0.74116,-1.881687 1.41268,-4.042831 5.02049,-8.971389 6.44602,-8.805778 0.5798,0.06736 0.68014,0.203136 0.64552,0.873503 -0.0225,0.436563 -0.22593,1.503175 -0.45197,2.370249 -0.22605,0.867074 -0.37421,1.613275 -0.32926,1.658226 0.045,0.04495 1.26037,-0.09691 2.70093,-0.315241 1.44056,-0.218334 6.250607,-0.581718 10.688997,-0.807522 8.26812,-0.420642 12.5872,-0.89223 14.98647,-1.636336 3.29444,-1.021731 3.15476,1.179057 -0.23835,3.755509 l -1.52375,1.157012 3.37583,-0.0071 c 2.61969,-0.0055 4.1759,0.151876 6.94771,0.702638 4.0305,0.800862 11.49021,1.188996 13.97135,0.72694 1.51758,-0.282619 2.28407,0.06541 2.11199,0.958959 -0.14997,0.77874 -5.47257,3.810762 -8.62827,4.915099 l -0.97278,0.340426 1.5875,0.314057 c 4.42992,0.87638 10.39141,2.910502 14.68438,5.010463 2.4665,1.206518 2.89376,1.636144 2.39682,2.410037 -0.22237,0.346305 -2.94573,0.633798 -7.41068,0.782309 -0.84785,0.0282 -0.4407,0.393901 0.91282,0.819891 2.17359,0.68411 4.88723,2.25929 9.14327,5.30735 5.23132,3.74655 6.57728,4.41554 9.3564,4.65047 2.01644,0.17045 2.79929,0.52936 2.79929,1.2834 0,0.52339 -1.22949,1.31959 -4.29953,2.7843 l -2.71193,1.29387 1.27416,0.011 c 2.78239,0.0241 3.08548,1.17836 0.77636,2.95675 -1.90749,1.46908 -3.58699,2.55397 -4.47839,2.89288 -0.37853,0.14393 -0.62133,0.32858 -0.53956,0.41035 0.20077,0.20077 5.59603,-0.60414 8.09648,-1.2079 1.92817,-0.46557 2.03573,-0.46634 2.50428,-0.0179 0.37571,0.35962 0.42715,0.58527 0.22118,0.97015 -0.29926,0.55917 -2.53083,2.69617 -4.14234,3.96678 l -1.05032,0.82814 2.1849,0.69022 c 1.2017,0.37962 2.84414,0.76769 3.64988,0.8624 1.38557,0.16284 2.21899,0.60773 2.21899,1.18453 0,0.35739 -1.20212,1.44821 -2.77812,2.52089 -1.82992,1.2455 -4.23982,1.94554 -6.69754,1.94554 h -2.0116 l 1.15023,1.17201 c 1.63593,1.66692 3.61526,2.9612 6.29361,4.11542 2.11633,0.91203 2.32363,1.06632 2.32363,1.72951 0,0.65908 -0.18749,0.80299 -1.97672,1.51726 -1.0872,0.43402 -2.93267,1.02594 -4.10105,1.31538 l -2.12431,0.52627 -0.0297,4.27097 c -0.0483,6.94883 -1.02889,13.97276 -2.83392,20.29867 -0.85484,2.9959 -0.86438,3.0859 -0.43497,4.10104 1.13413,2.68106 1.4737,7.00473 0.78086,9.94297 -1.19129,5.05224 -5.20803,8.74595 -11.04759,10.15914 -1.14343,0.27671 -1.6141,0.58176 -2.61456,1.69451 -3.96823,4.41362 -14.03558,8.77618 -26.27482,11.38584 -2.05349,0.43785 -4.1164,0.80445 -4.58426,0.81468 -0.46786,0.0102 -1.08612,0.11059 -1.37391,0.22303 -0.51572,0.20149 -0.51534,0.20868 0.0264,0.49863 0.30233,0.1618 1.48909,0.54593 2.63725,0.85361 3.34922,0.89752 4.66181,1.77271 9.66079,6.44143 9.39278,8.77224 10.54491,10.79455 8.86355,15.55797 -0.34268,0.97082 -0.86471,2.1045 -1.16006,2.51928 l -0.537,0.75416 1.8314,2.3755 c 1.94473,2.52252 3.41028,5.13193 3.41028,6.07204 0,0.31311 -0.25735,0.84554 -0.57189,1.18315 -0.53362,0.57278 -0.69738,0.60078 -2.4474,0.41849 -2.26741,-0.23619 -2.72381,-0.23606 -3.6541,10e-4 -1.23406,0.31455 -2.94742,-0.92331 -4.43762,-3.20607 -0.7043,-1.07888 -1.32802,-2.10403 -1.38605,-2.27811 -0.0806,-0.24164 -0.30477,-0.23397 -0.94797,0.0324 -0.46336,0.19193 -0.84247,0.41098 -0.84247,0.48678 0,0.0758 0.23657,0.93219 0.52572,1.90309 0.65979,2.21545 1.24046,5.28766 1.1158,5.9035 -0.10524,0.5199 -1.24654,1.07706 -3.60727,1.76101 l -1.56887,0.45453 -0.72731,3.62272 c -1.17768,5.8661 -3.91527,15.0495 -6.46758,21.69589 -1.25721,3.27386 -1.53826,3.486 -4.60469,3.47569 -2.71344,-0.009 -3.36017,-0.30394 -3.61794,-1.64926 -0.10423,-0.54394 -0.0613,-6.70397 0.0954,-13.68897 0.25907,-11.55032 0.24607,-12.76587 -0.14352,-13.42761 -0.23561,-0.40017 -0.4961,-0.72759 -0.57887,-0.72759 -0.0828,0 -0.34326,0.32742 -0.57886,0.72761 -0.3896,0.66173 -0.40259,1.87728 -0.14352,13.4276 0.15667,6.985 0.19959,13.14504 0.0954,13.68897 -0.11131,0.58092 -0.4087,1.10629 -0.72076,1.2733 -0.71178,0.38093 -3.856737,0.55082 -4.965327,0.26822 z m 3.616347,-3.1258 0.0814,-1.12448 h -2.13188 c -1.172537,0 -2.131877,0.045 -2.131877,0.1 0,0.39893 0.84602,1.99569 1.1179,2.1099 0.18552,0.0779 0.932617,0.11861 1.660227,0.0904 l 1.32291,-0.0513 z m 8.37353,1.09239 c 0.33923,-0.13018 1.20241,-1.64984 1.20241,-2.11689 0,-0.055 -0.9525,-0.1 -2.11667,-0.1 h -2.11667 v 1.01423 c 0,0.55784 0.0794,1.09362 0.17639,1.19063 0.22246,0.22246 2.28351,0.23113 2.85454,0.012 z m -7.36179,-28.80749 c 0.77664,-1.16972 1.10722,-1.45521 1.68503,-1.45521 0.5778,0 0.90839,0.28549 1.68503,1.45521 0.94565,1.42424 0.99289,1.45515 2.22027,1.45294 3.89213,-0.007 10.3108,-0.90721 13.50624,-1.89418 l 1.67925,-0.51867 -0.1859,-1.10755 c -0.46196,-2.75211 -2.36932,-7.80564 -4.73089,-12.53439 -1.99001,-3.98476 -2.77835,-5.92704 -3.95325,-9.73982 -0.80715,-2.61937 -1.74038,-5.5364 -2.07384,-6.48229 l -0.60628,-1.71979 -1.98438,0.34536 c -2.28303,0.39734 -10.703807,0.28104 -12.108407,-0.16723 -0.83676,-0.26705 -0.87637,-0.2453 -1.27364,0.69917 -0.22551,0.53613 -1.23515,3.59416 -2.24365,6.79562 -1.52714,4.84786 -2.22821,6.60156 -4.19416,10.49156 -2.25773,4.46736 -4.21996,9.66491 -4.64805,12.31181 l -0.17914,1.10755 1.70308,0.52603 c 3.26769,1.00929 8.5213,1.7605 12.953247,1.85219 l 1.78323,0.0369 z m -27.726237,-5.16834 c 1.13445,-0.25676 1.5394,-0.25194 2.05595,0.0245 0.55996,0.29968 0.73614,0.2749 1.36065,-0.19136 0.39457,-0.29459 1.24975,-1.39908 1.90041,-2.45441 0.96924,-1.57205 1.11354,-1.96067 0.79853,-2.15058 -0.21146,-0.1275 -1.10498,-0.64536 -1.9856,-1.1508 l -1.60111,-0.919 -1.33357,1.77166 c -1.87669,2.49318 -2.9592,4.13073 -3.26861,4.94454 -0.23016,0.60536 -0.20362,0.6823 0.19737,0.57229 0.25481,-0.0699 1.099,-0.27099 1.87598,-0.44685 z m 60.889077,-0.14335 c -0.303,-0.79694 -1.39657,-2.44867 -3.2618,-4.92663 l -1.33357,-1.77166 -1.60112,0.919 c -0.88061,0.50545 -1.77413,1.0233 -1.98559,1.1508 -0.31501,0.18991 -0.17071,0.57853 0.79852,2.15058 1.49295,2.42149 2.35927,3.1284 3.24981,2.6518 0.52028,-0.27845 0.93047,-0.26761 2.32053,0.0613 0.9287,0.21975 1.77489,0.41006 1.88043,0.42291 0.10554,0.0128 0.0753,-0.28331 -0.0672,-0.65813 z M 88.642923,231.3228 c 1.40417,-2.81999 2.55304,-5.27172 2.55304,-5.44827 0,-0.17656 0.65485,-2.31273 1.45521,-4.74705 1.42819,-4.34387 1.45521,-4.4834 1.45521,-7.5163 0,-3.61284 0.0284,-3.58834 -2.71779,-2.34306 -1.16757,0.52944 -2.57319,1.58921 -4.82284,3.63619 -4.27902,3.89354 -7.80096,7.45407 -9.18004,9.28065 -1.07363,1.42201 -1.13871,1.60767 -1.13871,3.24864 0,1.32729 0.15702,2.05446 0.66146,3.06335 0.62273,1.24546 0.89383,1.45832 4.63021,3.63568 2.18281,1.27201 4.0998,2.31381 4.25998,2.3151 0.16018,0.001 1.4401,-2.30493 2.84427,-5.12493 z m 39.727007,2.80983 c 3.73638,-2.17736 4.00747,-2.39022 4.63021,-3.63568 0.50444,-1.00889 0.66145,-1.73606 0.66145,-3.06335 0,-1.64097 -0.0651,-1.82663 -1.13871,-3.24864 -1.37907,-1.82658 -4.90101,-5.38711 -9.18004,-9.28065 -2.24964,-2.04698 -3.65526,-3.10675 -4.82283,-3.63619 -2.74622,-1.24528 -2.71779,-1.26978 -2.71779,2.34306 0,3.0329 0.027,3.17243 1.45521,7.5163 0.80036,2.43432 1.4552,4.57049 1.4552,4.74705 0,0.58428 5.10028,10.57559 5.39731,10.5732 0.16018,-0.001 2.07717,-1.04309 4.25999,-2.3151 z m -19.6896,-22.29296 c 0.77935,-0.1478 1.83739,-0.48689 2.35121,-0.75354 0.79115,-0.41057 0.93422,-0.62265 0.93422,-1.38492 0,-1.02574 -0.0238,-1.02975 -2.3707,-0.39833 -1.01876,0.2741 -2.66142,0.42427 -4.64076,0.42427 -1.97934,0 -3.622,-0.15017 -4.64077,-0.42427 -2.346857,-0.63142 -2.370687,-0.62741 -2.370687,0.39833 0,0.76637 0.14224,0.97392 0.95732,1.39691 0.52652,0.27325 1.479017,0.59929 2.116667,0.72456 1.64982,0.3241 5.99335,0.33373 7.6635,0.017 z m 4.21147,-6.74734 c 13.34213,-1.49731 28.45379,-7.16784 32.20348,-12.08411 1.46059,-1.915 1.86048,-2.77869 2.1666,-4.67957 0.2423,-1.50455 0.12303,-3.15206 -0.36884,-5.09491 -0.11954,-0.47218 0.29668,-2.38964 1.29224,-5.95312 3.82942,-13.70688 5.45236,-23.43164 5.45236,-32.67091 v -3.37036 l -2.21681,-1.97234 c -3.84246,-3.41872 -7.51529,-5.59273 -10.74778,-6.36177 -4.47299,-1.06417 -4.56307,-1.06772 -7.48695,-0.29453 -2.44887,0.64757 -3.00657,0.7013 -6.0068,0.57872 -2.40819,-0.0984 -4.02657,-0.3273 -5.95312,-0.84206 -1.45521,-0.38883 -2.94349,-0.64971 -3.3073,-0.57975 -1.33118,0.25599 -7.21063,-0.39377 -9.45917,-1.04537 -1.23897,-0.35906 -2.30459,-0.6009 -2.36805,-0.53744 -0.23667,0.23668 -0.59394,5.17072 -0.59644,8.23711 -0.005,6.10174 0.792,10.7341 2.56061,14.88363 0.76016,1.7835 0.87046,2.25618 0.60198,2.57969 -0.51929,0.62569 -1.1383,0.47153 -2.39358,-0.59611 -4.54437,-3.86508 -7.487307,-10.70271 -8.616817,-20.02039 -0.23079,-1.90381 -0.47682,-3.52082 -0.54674,-3.59335 -0.19578,-0.20308 -0.74361,0.63119 -2.90503,4.42383 -2.27758,3.99649 -4.27037,8.32794 -5.11606,11.12012 -0.49991,1.65053 -0.66519,1.91823 -1.18428,1.91823 -1.13056,0 -1.28571,-0.56477 -1.40422,-5.11166 -0.13258,-5.08657 0.20792,-6.95891 1.8035,-9.91705 0.84261,-1.56215 0.9513,-1.90927 0.55882,-1.7847 -3.50376,1.11206 -8.62908,1.22282 -12.20866,0.26384 -2.31456,-0.62009 -2.65878,-0.64879 -4.36562,-0.36406 -1.01913,0.17002 -2.15061,0.51324 -2.51441,0.76271 -0.3638,0.24947 -1.25344,0.534 -1.97698,0.63229 -2.2534,0.30611 -5.53785,2.30083 -9.29997,5.64807 l -2.2168,1.97234 v 3.37036 c 0,9.23927 1.62294,18.96403 5.45236,32.67091 0.99556,3.56348 1.41178,5.48094 1.29224,5.95312 -0.71969,2.84268 -0.60069,5.74329 0.30952,7.54487 1.30786,2.58865 3.19227,4.27207 7.49796,6.69825 4.35244,2.45252 14.0639,5.62282 21.29896,6.95303 5.80414,1.06712 14.649797,1.34925 20.769797,0.66244 z M 92.508893,187.28797 c -0.21278,-0.0656 -1.22032,-0.63175 -2.23897,-1.25805 -4.6763,-2.87512 -11.42886,-3.70713 -16.05111,-1.97773 -0.7971,0.29823 -2.27418,1.04027 -3.28241,1.64897 -2.68628,1.6218 -4.23661,1.38407 -4.84671,-0.74321 -0.47272,-1.64828 0.69098,-2.95971 4.19824,-4.73121 6.04537,-3.05348 14.10375,-2.87769 20.87978,0.45549 1.22139,0.60081 2.6799,1.5292 3.24115,2.0631 0.85386,0.81226 1.02044,1.14428 1.02044,2.03394 0,1.58909 -1.55926,2.92853 -2.92041,2.5087 z m 23.908977,0.0118 c -1.03738,-0.16901 -1.93857,-1.34072 -1.93857,-2.5205 0,-0.89732 0.16615,-1.22127 1.06483,-2.07617 1.28461,-1.22201 4.70113,-2.91235 7.36673,-3.64472 6.04359,-1.66045 11.92314,-1.24935 16.70981,1.16836 3.50725,1.77149 4.67096,3.08293 4.19824,4.73121 -0.6101,2.12727 -2.16043,2.36501 -4.84671,0.74321 -1.00823,-0.6087 -2.48531,-1.35074 -3.28241,-1.64897 -4.61789,-1.72777 -11.35904,-0.8993 -16.05111,1.97265 -2.09104,1.27989 -2.41156,1.40677 -3.22081,1.27493 z M 89.547053,153.76721 c -5.79406,-0.85902 -13.34222,-1.14443 -17.79796,-0.67298 -2.36562,0.25029 -2.85247,0.068 -2.72536,-1.02046 0.11176,-0.95703 1.04599,-1.08721 8.01702,-1.11721 4.45621,-0.0192 6.99938,0.11265 10.84792,0.56231 2.7649,0.32304 5.24258,0.70132 5.50596,0.84061 0.32001,0.16925 0.45168,0.48874 0.39688,0.96307 -0.0705,0.61021 -0.21195,0.71524 -1.00805,0.7485 -0.50932,0.0213 -1.96571,-0.11545 -3.23641,-0.30384 z m 24.942507,-0.11256 c -0.35952,-0.67176 -0.0897,-1.31689 0.61424,-1.46887 3.97889,-0.85903 14.85482,-1.52156 19.84741,-1.20904 4.15443,0.26006 4.74121,0.50642 4.17356,1.7523 -0.2653,0.58227 -0.44081,0.67374 -1.03912,0.54154 -0.39594,-0.0875 -2.56536,-0.23588 -4.82093,-0.32974 -4.29642,-0.1788 -10.3292,0.16164 -14.88107,0.83976 -3.3137,0.49366 -3.56687,0.48547 -3.89409,-0.12595 z m -53.580167,36.69177 c -0.3781,-1.21151 -0.47181,-5.03911 -0.15773,-6.44257 0.28,-1.25114 0.25045,-1.65777 -0.25239,-3.47343 -0.31323,-1.13101 -1.1514,-4.18639 -1.86261,-6.78972 -0.71121,-2.60333 -1.33466,-4.77487 -1.38544,-4.82565 -0.0508,-0.0508 -0.62824,0.24752 -1.28323,0.66291 -3.44403,2.18414 -5.23879,6.80774 -4.50593,11.60805 0.69985,4.58412 3.40219,7.69093 8.24085,9.47432 1.30434,0.48074 1.41703,0.46076 1.20648,-0.21391 z m 91.687447,-1.02288 c 1.94316,-1.0357 3.77741,-2.96531 4.66808,-4.91079 1.94691,-4.25261 1.22461,-10.10592 -1.63809,-13.27459 -1.15786,-1.28161 -2.73641,-2.32068 -3.02618,-1.99195 -0.11247,0.12759 -0.53161,1.48214 -0.93143,3.01011 -0.39981,1.52797 -1.19895,4.445 -1.77586,6.48229 -0.99772,3.5233 -1.03362,3.7779 -0.73523,5.21429 0.3092,1.4884 0.21625,5.29155 -0.15868,6.49259 -0.18455,0.5912 -0.17962,0.59229 0.92438,0.20277 0.61045,-0.21538 1.81331,-0.7665 2.67301,-1.22472 z"
       id="path847-8"
       clip-path="url(#clipPath1053)" />
  </g>
  <g
     inkscape:groupmode="layer"
     id="layer3"
     inkscape:label="border 2"
     style="display:inline"
     transform="translate(-19.94487,-63.44487)"
     sodipodi:insensitive="true">
    <circle
       style="fill:none;stroke:#000000;stroke-width:2.265;stroke-miterlimit:4;stroke-dasharray:none;stroke-dashoffset:1.51937;stroke-opacity:1"
       id="path851-8-5"
       cx="105"
       cy="148.5"
       r="83.92263" />
  </g>
</svg>
